<?xml version="1.0" encoding="utf-8"?>
<!-- Generator: Adobe Illustrator 19.0.0, SVG Export Plug-In . SVG Version: 6.00 Build 0)  -->
<svg version="1.1" id="组_51_1_" xmlns="http://www.w3.org/2000/svg" xmlns:xlink="http://www.w3.org/1999/xlink" x="0px" y="0px"
	 viewBox="0 0 32 32" style="enable-background:new 0 0 32 32;" xml:space="preserve">
<style type="text/css">
	.st0{fill-rule:evenodd;clip-rule:evenodd;fill:#3ECD00;}
	.st1{fill-rule:evenodd;clip-rule:evenodd;fill:#FFFFFF;}
</style>
<g id="圆角矩形_65">
	<g>
		<path class="st0" d="M28,0H4C1.8,0,0,1.8,0,4v24c0,2.2,1.8,4,4,4h24c2.2,0,4-1.8,4-4V4C32,1.8,30.2,0,28,0z"/>
	</g>
</g>
<g id="椭圆_1">
	<g>
		<ellipse class="st1" cx="16" cy="17" rx="14" ry="13"/>
	</g>
</g>
<g id="微信">
	<g>
		<path class="st0" d="M18.3,16.4c-0.4,0-0.8,0.4-0.8,0.8c0,0.4,0.4,0.8,0.8,0.8c0.6,0,1-0.4,1-0.8C19.3,16.8,18.9,16.4,18.3,16.4z
			 M22.7,16.4c-0.4,0-0.8,0.4-0.8,0.8c0,0.4,0.4,0.8,0.8,0.8c0.6,0,1-0.4,1-0.8C23.6,16.8,23.2,16.4,22.7,16.4z M10.2,10.6
			c-0.6,0-1.2,0.4-1.2,1c0,0.6,0.6,1,1.2,1c0.6,0,1-0.4,1-1C11.1,11,10.8,10.6,10.2,10.6z M15.7,12.6c0.6,0,1-0.4,1-1
			c0-0.6-0.4-1-1-1c-0.6,0-1.2,0.4-1.2,1C14.5,12.2,15.1,12.6,15.7,12.6z M16,0C7.2,0,0,7.2,0,16c0,8.8,7.2,16,16,16
			c8.8,0,16-7.2,16-16C32,7.2,24.9,0,16,0z M12.7,20.8c-1,0-1.8-0.2-2.8-0.4l-2.8,1.4L8,19.4C6,18,4.8,16.2,4.8,14
			c0-3.8,3.6-6.8,7.9-6.8c3.9,0,7.3,2.4,8,5.6c-0.3,0-0.5,0-0.8,0c-3.8,0-6.7,2.8-6.7,6.3c0,0.6,0.1,1.1,0.2,1.7
			C13.2,20.8,13,20.8,12.7,20.8z M24.4,23.6l0.6,2l-2.2-1.2c-0.8,0.2-1.6,0.4-2.4,0.4c-3.8,0-6.7-2.6-6.7-5.8c0-3.2,3-5.8,6.7-5.8
			c3.6,0,6.7,2.6,6.7,5.8C27.2,20.8,26,22.4,24.4,23.6z"/>
	</g>
</g>
</svg>
