<?xml version="1.0" encoding="utf-8"?>
<!-- Generator: Adobe Illustrator 19.0.0, SVG Export Plug-In . SVG Version: 6.00 Build 0)  -->
<svg version="1.1" id="组_52_1_" xmlns="http://www.w3.org/2000/svg" xmlns:xlink="http://www.w3.org/1999/xlink" x="0px" y="0px"
	 viewBox="0 0 32 32" style="enable-background:new 0 0 32 32;" xml:space="preserve">
<style type="text/css">
	.st0{fill-rule:evenodd;clip-rule:evenodd;fill:#F66A06;}
	.st1{fill-rule:evenodd;clip-rule:evenodd;fill:#FFFFFF;}
</style>
<g id="圆角矩形_65_拷贝">
	<g>
		<path class="st0" d="M28,0H4C1.8,0,0,1.8,0,4v24c0,2.2,1.8,4,4,4h24c2.2,0,4-1.8,4-4V4C32,1.8,30.2,0,28,0z"/>
	</g>
</g>
<g id="椭圆_1_拷贝">
	<g>
		<ellipse class="st1" cx="17" cy="16" rx="13" ry="12"/>
	</g>
</g>
<g id="微博">
	<g>
		<path class="st0" d="M13.9,18.6c-0.2,0.2-0.3,0.5-0.2,0.7c0.1,0.2,0.4,0.2,0.7,0.1c0.2-0.2,0.3-0.5,0.2-0.7
			C14.5,18.5,14.2,18.4,13.9,18.6z M16,0C7.1,0,0,7.2,0,16c0,8.8,7.2,16,16,16c8.8,0,16-7.2,16-16C32,7.2,24.8,0,16,0z M24.2,20.2
			c-1.6,3.3-6.7,4.9-10.6,4.6c-3.6-0.3-8.3-1.5-8.8-5.8c0,0-0.3-2,1.7-4.5c0,0,2.8-3.8,6-4.9c3.2-1.1,3.6,0.8,3.6,1.8
			c-0.2,0.9-0.5,1.5,0.7,1.1c0,0,3.2-1.5,4.5-0.2c1.1,1,0.2,2.5,0.2,2.5s-0.4,0.5,0.5,0.7C22.9,15.6,25.7,16.9,24.2,20.2z M21,11.1
			c-0.3,0-0.6-0.3-0.6-0.6c0-0.3,0.3-0.6,0.6-0.6c0,0,3.9-0.7,3.4,3.4c0,0,0,0,0,0.1c0,0.3-0.3,0.5-0.6,0.5c-0.3,0-0.6-0.3-0.6-0.6
			C23.2,13.3,23.8,10.5,21,11.1z M27.6,14c-0.1,1.5-0.5,1-0.9,1c-0.5,0-0.9-0.2-0.9-0.7c0-0.4,0.2-0.8,0.2-0.8
			c0.1-0.2,0.5-1.3-0.3-2.9c-1.4-2.3-4.2-2.3-4.5-2.2c-0.3,0.1-0.8,0.2-0.8,0.2c-0.5,0-0.9-0.4-0.9-0.9c0-0.4,0.3-2.1,0.7-2.2
			c0,0,0,0,0,0c0,0,0,1.3,0,1.3c0.4-0.1,1.8-0.6,3.1-0.3C25.8,7.1,29.1,9.6,27.6,14L27.6,14z M13.9,14.7C10.1,14.8,7,16.9,7,19.3
			c0,2.5,3.1,4.4,6.9,4.2c3.8-0.2,6.9-2.5,6.9-5C20.8,16,17.7,14.5,13.9,14.7z M16.5,21c-1.2,1.5-3.5,2.2-5.7,1
			c-0.3-0.2-0.5-0.4-0.7-0.6c0.5,0.2,1.6,0,2.1-0.1c0.7-0.1,1.3-0.6,1.3-1.2c0-0.6-0.5-1.1-1.4-1c-0.7,0.1-2,1.1-2.3,1.7
			c-0.1-0.3-0.1-0.5-0.1-0.5s-0.4-3.5,3.4-4C16.9,15.9,17.6,19.5,16.5,21z"/>
	</g>
</g>
</svg>
